<svg width="69" height="123" viewBox="0 0 69 123" fill="none" xmlns="http://www.w3.org/2000/svg">
<path d="M50.1229 55.9308L24.2423 48.3583C21.2469 47.4956 19.1621 44.6919 19.1621 41.5766C19.1621 37.6706 22.3252 34.5074 26.2313 34.5074H42.1191C45.0426 34.5074 47.9182 35.3941 50.3146 37.0236C51.7763 38.0061 53.7414 37.7664 54.9875 36.5443L63.3267 28.3967C65.0282 26.7432 64.7885 23.9874 62.8954 22.5257C57.0243 17.9247 49.6915 15.3606 42.167 15.3366V3.83416C42.167 1.72537 40.4416 0 38.3328 0H30.6645C28.5557 0 26.8304 1.72537 26.8304 3.83416V15.3366H26.2313C10.9665 15.3366 -1.30276 28.4447 0.111087 43.997C1.11755 55.0441 9.5527 64.0304 20.1925 67.1457L44.7551 74.3347C47.7505 75.2214 49.8353 78.0011 49.8353 81.1164C49.8353 85.0224 46.6721 88.1856 42.7661 88.1856H26.8783C23.9547 88.1856 21.0791 87.299 18.6828 85.6694C17.221 84.6869 15.256 84.9266 14.0099 86.1487L5.67061 94.2963C3.96921 95.9498 4.20884 98.7056 6.10196 100.167C11.973 104.768 19.3058 107.332 26.8304 107.356V118.859C26.8304 120.968 28.5557 122.693 30.6645 122.693H38.3328C40.4416 122.693 42.167 120.968 42.167 118.859V107.308C53.334 107.093 63.806 100.455 67.4964 89.887C72.6485 75.1255 63.9977 59.9806 50.1229 55.9308Z" fill="#FF5A5F"/>
</svg>
