<svg width="120" height="107" viewBox="0 0 120 107" fill="none" xmlns="http://www.w3.org/2000/svg">
<path d="M116.667 13.3333C118.508 13.3333 120 11.8417 120 10V3.33333C120 1.49167 118.508 0 116.667 0H3.33333C1.49167 0 0 1.49167 0 3.33333V10C0 11.8417 1.49167 13.3333 3.33333 13.3333H6.6625V93.3333H3.33333C1.49167 93.3333 0 94.825 0 96.6667V103.333C0 105.175 1.49167 106.667 3.33333 106.667H53.3333V90C53.3333 88.1667 54.8333 86.6667 56.6667 86.6667H63.3333C65.1667 86.6667 66.6667 88.1667 66.6667 90V106.667H116.667C118.508 106.667 120 105.175 120 103.333V96.6667C120 94.825 118.508 93.3333 116.667 93.3333H113.333V13.3333H116.667ZM53.3333 22.6667C53.3333 21.3333 54.6667 20 56 20H64C65.3333 20 66.6667 21.3333 66.6667 22.6667V30.6667C66.6667 32 65.3333 33.3333 64 33.3333H56C54.6667 33.3333 53.3333 32 53.3333 30.6667V22.6667ZM53.3333 42.6667C53.3333 41.3333 54.6667 40 56 40H64C65.3333 40 66.6667 41.3333 66.6667 42.6667V50.6667C66.6667 52 65.3333 53.3333 64 53.3333H56C54.6667 53.3333 53.3333 52 53.3333 50.6667V42.6667ZM26.6667 22.6667C26.6667 21.3333 28 20 29.3333 20H37.3333C38.6667 20 40 21.3333 40 22.6667V30.6667C40 32 38.6667 33.3333 37.3333 33.3333H29.3333C28 33.3333 26.6667 32 26.6667 30.6667V22.6667ZM37.3333 53.3333H29.3333C28 53.3333 26.6667 52 26.6667 50.6667V42.6667C26.6667 41.3333 28 40 29.3333 40H37.3333C38.6667 40 40 41.3333 40 42.6667V50.6667C40 52 38.6667 53.3333 37.3333 53.3333ZM40 80C40 68.9542 48.9542 60 60 60C71.0458 60 80 68.9542 80 80H40ZM93.3333 50.6667C93.3333 52 92 53.3333 90.6667 53.3333H82.6667C81.3333 53.3333 80 52 80 50.6667V42.6667C80 41.3333 81.3333 40 82.6667 40H90.6667C92 40 93.3333 41.3333 93.3333 42.6667V50.6667ZM93.3333 30.6667C93.3333 32 92 33.3333 90.6667 33.3333H82.6667C81.3333 33.3333 80 32 80 30.6667V22.6667C80 21.3333 81.3333 20 82.6667 20H90.6667C92 20 93.3333 21.3333 93.3333 22.6667V30.6667Z" fill="#FF5A5F"/>
</svg>
